<svg width="33" height="32" viewBox="0 0 33 32" fill="none" xmlns="http://www.w3.org/2000/svg">
<path d="M9.5393 24.6397C8.09755 24.5596 8.1247 22.3553 9.53923 22.2788C13.5462 22.2939 24.1147 22.2828 28.2491 22.286C29.3799 22.286 30.3473 21.4495 30.6017 20.252L32.9493 9.2018C33.0837 8.5691 32.948 7.91425 32.5771 7.40528C32.2062 6.8963 31.6509 6.60028 31.0535 6.60028C29.3903 6.60028 15.2724 6.53082 8.04126 6.49948L6.89499 1.87636C6.61982 0.77156 5.6923 0 4.63935 0H0.967311C0.433097 0 0 0.470773 0 1.05146C0 1.63214 0.433097 2.10292 0.967311 2.10292H4.63935C4.82063 2.10292 4.98023 2.23575 5.02737 2.4248L9.42961 20.1787C8.65556 20.2093 7.93459 20.5515 7.38787 21.1545C6.81342 21.7882 6.50491 22.627 6.51916 23.5164C6.54766 25.2953 7.90248 26.7425 9.5393 26.7425H10.9498C10.7401 27.2208 10.6224 27.7556 10.6224 28.3198C10.6224 30.3491 12.1412 32 14.0081 32C15.8751 32 17.3939 30.3491 17.3939 28.3198C17.3939 27.7555 17.2761 27.2208 17.0665 26.7425H23.1745C22.965 27.2207 22.8473 27.7552 22.8473 28.3192C22.8473 30.3485 24.3662 31.9994 26.233 31.9994C28.0999 31.9994 29.6188 30.3484 29.6188 28.3192C29.6188 27.7333 29.4915 27.1792 29.2664 26.687C29.6492 26.5469 29.9252 26.1544 29.9252 25.6911C29.9252 25.1104 29.4922 24.6397 28.9579 24.6397H9.5393ZM15.4592 28.3198C15.4592 29.1896 14.8082 29.8972 14.0081 29.8972C13.2079 29.8972 12.557 29.1896 12.557 28.3198C12.557 27.4506 13.2073 26.7433 14.0069 26.7426H14.0093C14.8089 26.7433 15.4592 27.4506 15.4592 28.3198ZM26.2331 29.8966C25.433 29.8966 24.782 29.189 24.782 28.3193C24.782 27.4581 25.4203 26.7564 26.2095 26.7426H26.2567C27.046 26.7564 27.6843 27.4581 27.6843 28.3193C27.6842 29.189 27.0332 29.8966 26.2331 29.8966V29.8966ZM31.0606 8.71091C31.0664 8.71876 31.0655 8.72247 31.0643 8.7285L30.0751 13.3847H26.7255L27.2959 8.68658L31.0458 8.70299C31.0515 8.70313 31.0549 8.70313 31.0606 8.71091V8.71091ZM21.088 20.183V15.4876H24.5188L23.9487 20.183H21.088ZM16.2913 20.183L15.7165 15.4876H19.1533V20.183H16.2913ZM11.8382 20.183H11.8352C11.5994 20.1829 11.3917 20.0101 11.3304 19.7638L10.2701 15.4876H13.7648L14.3395 20.183H11.8382ZM15.4591 13.3848L14.8774 8.63226L19.1533 8.65097V13.3848H15.4591ZM21.088 13.3848V8.65946L25.3455 8.6781L24.7741 13.3848H21.088ZM12.9246 8.62364L13.5074 13.3847H9.74862L8.56335 8.6045L12.9246 8.62364ZM28.2491 20.183H25.9001L26.4701 15.4876H29.6283L28.7166 19.7788C28.6661 20.0168 28.4738 20.183 28.2491 20.183Z" fill="#F0EFEF"/>
</svg>
