<svg width="30" height="32" viewBox="0 0 30 32" fill="none" xmlns="http://www.w3.org/2000/svg">
<path d="M25.7708 8H23.2187C23.0979 8 23 8.08394 23 8.1875V11.3125C23 11.4161 23.0979 11.5 23.2187 11.5H25.0417C25.5249 11.5 25.9167 11.8358 25.9167 12.25V23.75C25.9167 24.1642 25.5249 24.5 25.0417 24.5H23.2187C23.0979 24.5 23 24.5839 23 24.6875V27.8125C23 27.9161 23.0979 28 23.2187 28H25.7708C28.1066 28 30 26.3771 30 24.375V11.625C30 9.62294 28.1066 8 25.7708 8V8Z" fill="#F0EFEF"/>
<path d="M17.5228 1.28311C16.1315 0.70381 14.4625 0.907892 13.3018 1.83349C12.386 1.40343 11.3227 1.33016 10.3744 1.58609C8.92331 -0.459956 5.54967 -0.545765 3.97158 1.44099C1.77087 1.36646 -0.0845053 2.95129 0.00297253 4.93139C0.0970899 7.08994 2.52142 8.66367 4.95272 8.01332C5.21434 7.94395 5.47581 8.12013 5.47581 8.3592V10.3196C5.47581 11.3012 6.43464 12.0799 7.56309 11.9934C8.54205 11.9185 9.30895 11.1714 9.30895 10.2925V6.95925C9.30895 6.56501 9.6705 6.23917 10.1303 6.23917C10.584 6.23917 10.9517 6.56158 10.9517 6.95925V8.3994C10.9517 8.86943 11.1784 9.3211 11.5736 9.6386C12.8107 10.6325 14.7849 9.84352 14.7849 8.37222C14.7849 7.63702 14.7676 7.65046 14.8364 7.60312C14.9606 7.51755 15.093 7.67933 15.8801 7.67933C16.4493 7.67933 17.0113 7.56777 17.5227 7.35487C18.0799 7.58716 18.6935 7.69745 19.3145 7.67657C22.603 7.56651 24.2182 4.07558 21.9278 1.98903C20.7254 0.893791 18.9377 0.693969 17.5228 1.28311V1.28311Z" fill="#F0EFEF"/>
<path d="M17.5 15C17.2243 15 17 15.2243 17 15.5V26.5C17 26.7757 17.2243 27 17.5 27C17.7757 27 18 26.7757 18 26.5V15.5C18 15.2243 17.7757 15 17.5 15V15Z" fill="#F0EFEF"/>
<path d="M11.5 15C11.2243 15 11 15.2243 11 15.5V26.5C11 26.7757 11.2243 27 11.5 27C11.7757 27 12 26.7757 12 26.5V15.5C12 15.2243 11.7757 15 11.5 15V15Z" fill="#F0EFEF"/>
<path d="M5.74946 14.9992C5.44791 14.9992 5.20256 15.2235 5.20256 15.4992V26.4997C5.20256 26.7754 5.44791 26.9997 5.74946 26.9997C6.05101 26.9997 6.29636 26.7754 6.29636 26.4997V15.4992C6.29636 15.2235 6.05101 14.9992 5.74946 14.9992Z" fill="#F0EFEF"/>
<path d="M17.5131 8.38439C17.0559 8.52604 16.577 8.60728 16.0792 8.62259C15.9806 8.62564 15.8991 8.69348 15.8836 8.7831C15.6539 10.1146 14.4036 11.166 12.8857 11.166C12.0128 11.166 11.2173 10.8291 10.6599 10.279C10.5649 10.1853 10.3947 10.2466 10.3947 10.3747V10.3751C10.3947 11.8278 9.17757 13.0632 7.62329 13.1877C5.82537 13.3319 4.31579 12.0279 4.31579 10.4037V9.31284C4.31579 9.2027 4.21452 9.11594 4.09494 9.12318C3.10829 9.18282 2.14851 8.97531 1.31003 8.53385C1.17187 8.46112 1 8.55234 1 8.69875V29.5863C1 30.9194 2.17524 32 3.625 32H19.375C20.8248 32 22 30.9194 22 29.5863V8.19047C22 8.04419 21.8283 7.95285 21.6902 8.02545C20.462 8.6715 18.9985 8.80285 17.6449 8.38433C17.6021 8.37118 17.5559 8.37112 17.5131 8.38439V8.38439ZM7.63158 26.4104C7.63158 27.251 6.88781 27.9349 5.97368 27.9349C5.05956 27.9349 4.31579 27.251 4.31579 26.4104V15.2312C4.31579 14.3906 5.05956 13.7067 5.97368 13.7067C6.88781 13.7067 7.63158 14.3906 7.63158 15.2312V26.4104ZM13.1579 26.4104C13.1579 27.251 12.4141 27.9349 11.5 27.9349C10.5859 27.9349 9.8421 27.251 9.8421 26.4104V15.2312C9.8421 14.3906 10.5859 13.7067 11.5 13.7067C12.4141 13.7067 13.1579 14.3906 13.1579 15.2312V26.4104ZM18.6842 26.4104C18.6842 27.251 17.9404 27.9349 17.0263 27.9349C16.1122 27.9349 15.3684 27.251 15.3684 26.4104V15.2312C15.3684 14.3906 16.1122 13.7067 17.0263 13.7067C17.9404 13.7067 18.6842 14.3906 18.6842 15.2312V26.4104Z" fill="#F0EFEF"/>
</svg>
