<svg width="33" height="32" viewBox="0 0 33 32" fill="none" xmlns="http://www.w3.org/2000/svg">
<path d="M25.1357 27.6573L19.5728 23.9688C19.324 23.8055 18.9907 23.8592 18.8066 24.0925L17.1868 26.1636C16.6619 26.844 15.7145 27.0382 14.9618 26.6197L14.6624 26.4561C13.5819 25.8699 12.2369 25.1406 9.56685 22.4851C6.8968 19.8296 6.16297 18.4919 5.57413 17.4168L5.40909 17.1189C4.98831 16.3706 5.18358 15.4284 5.86765 14.9066L7.94949 13.2951C8.18428 13.1121 8.23844 12.7805 8.07385 12.533L4.36582 6.99981C4.19717 6.74873 3.8602 6.6732 3.59956 6.82804L1.27196 8.21616C0.772597 8.50603 0.405327 8.97677 0.246995 9.52984C-0.517459 12.2985 0.125602 17.1464 7.52923 24.5104C14.9329 31.8744 19.8062 32.5151 22.5924 31.7542C23.1486 31.5965 23.6218 31.231 23.9132 30.7341L25.3084 28.4192C25.4644 28.1602 25.3884 27.8249 25.1357 27.6573Z" fill="#F0EFEF"/>
<path d="M32.9061 1.0301C32.8451 0.969449 32.762 0.935788 32.6758 0.936749H7.97923C7.89297 0.935788 7.80994 0.969449 7.74895 1.0301C7.68797 1.09076 7.65412 1.17334 7.65509 1.25913V9.79316L9.05551 11.8824C9.56062 12.6414 9.39461 13.6589 8.67419 14.2202L6.59415 15.8317C6.37148 15.9997 6.30675 16.3049 6.44207 16.5481L6.61181 16.8559C7.15302 17.8795 7.81316 18.8365 8.57871 19.7072H32.6758C32.8526 19.7085 32.9974 19.5677 33 19.3918V1.25913C33.001 1.17334 32.9671 1.09076 32.9061 1.0301ZM16.1598 11.6913V11.6883L10.1218 18.122C9.89978 18.3588 9.52677 18.3718 9.28869 18.151C9.05055 17.9302 9.03753 17.5592 9.25949 17.3224L15.2974 10.8917C15.5195 10.6549 15.8925 10.6419 16.1306 10.8627C16.3687 11.0835 16.3818 11.4545 16.1598 11.6913ZM20.3275 11.2294C19.9027 11.2313 19.4889 11.0955 19.1487 10.8425L9.2972 3.41287C9.03779 3.21635 8.98763 2.84787 9.18522 2.5898C9.38281 2.3318 9.75331 2.28191 10.0128 2.47843L19.8602 9.90806C20.1389 10.1094 20.5163 10.1094 20.795 9.90806L30.6453 2.47843C30.9047 2.28275 31.2745 2.33327 31.4713 2.59128C31.6682 2.84928 31.6173 3.21712 31.3579 3.41287L21.5064 10.8425C21.1662 11.0955 20.7523 11.2313 20.3275 11.2294ZM31.4038 18.1508C31.2895 18.2569 31.1375 18.3135 30.9811 18.3082C30.8248 18.3028 30.677 18.2358 30.5704 18.122L24.533 11.6884C24.3279 11.4493 24.3489 11.0918 24.5806 10.8781C24.8122 10.6644 25.1722 10.6704 25.3965 10.8917L31.4327 17.3224C31.6546 17.5591 31.6417 17.9299 31.4038 18.1508Z" fill="#F0EFEF"/>
</svg>
