<svg width="50" height="50" viewBox="0 0 50 50" fill="none" xmlns="http://www.w3.org/2000/svg">
<g clip-path="url(#clip0)">
<path d="M31.3301 36.3079H35.2345V44.1162C35.2345 47.3454 32.6073 49.9722 29.3781 49.9722H5.85594C2.62718 49.9722 0 47.3454 0 44.1162V5.85594C0 2.62718 2.62718 0 5.85594 0H29.3781C32.6073 0 35.2345 2.62718 35.2345 5.85594V13.6642H31.3301V5.85594C31.3301 4.77982 30.4546 3.90396 29.3781 3.90396H5.85594C4.77982 3.90396 3.90396 4.77982 3.90396 5.85594V44.1162C3.90396 45.1923 4.77982 46.0682 5.85594 46.0682H29.3781C30.4546 46.0682 31.3301 45.1923 31.3301 44.1162V36.3079ZM40.7978 15.7837L38.0371 18.5444L42.5266 23.0343H17.2756V26.9382H42.5266L38.0371 31.4278L40.7978 34.1885L50 24.9863L40.7978 15.7837Z" fill="white"/>
</g>
<defs>
<clipPath id="clip0">
<rect width="50" height="50" fill="white"/>
</clipPath>
</defs>
</svg>
