<svg width="34" height="31" viewBox="0 0 34 31" fill="none" xmlns="http://www.w3.org/2000/svg">
<path d="M33.4293 14.0222L28.2765 9.02088V3.24352C28.2765 2.1989 27.4043 1.35231 26.3264 1.35231C25.251 1.35231 24.3789 2.1989 24.3789 3.24352V5.23799L20.5421 1.51398C18.6452 -0.326141 15.3471 -0.322877 13.4545 1.51731L0.570463 14.0222C-0.190114 14.7619 -0.190114 15.9587 0.570463 16.6972C1.33138 17.4367 2.56689 17.4367 3.32753 16.6972L16.2104 4.19203C16.6301 3.78682 17.3698 3.78682 17.7873 4.19083L30.6723 16.6972C31.0544 17.067 31.5525 17.2509 32.0505 17.2509C32.5495 17.2509 33.0485 17.0668 33.4294 16.6972C34.1902 15.9588 34.1902 14.7619 33.4293 14.0222Z" fill="#F0EFEF"/>
<path d="M17.6768 7.78201C17.3025 7.4189 16.6964 7.4189 16.3232 7.78201L4.99035 18.7783C4.81143 18.9519 4.70999 19.1889 4.70999 19.4362V27.4565C4.70999 29.3385 6.28221 30.8644 8.22119 30.8644H13.8321V22.4306H20.1667V30.8644H25.7777C27.7166 30.8644 29.2888 29.3385 29.2888 27.4566V19.4362C29.2888 19.1889 29.1883 18.9519 29.0085 18.7783L17.6768 7.78201Z" fill="#F0EFEF"/>
</svg>
