<svg width="28" height="32" viewBox="0 0 28 32" fill="none" xmlns="http://www.w3.org/2000/svg">
<path d="M14.5 0C6.78052 0 0.499969 4.78519 0.499969 10.6667C0.499969 12.4323 1.07935 14.1829 2.18079 15.7357L13.7344 31.6562C13.8882 31.8685 14.1813 32 14.5 32C14.8187 32 15.1118 31.8685 15.2656 31.6562L26.8234 15.7304C27.9206 14.1829 28.5 12.4323 28.5 10.6666C28.5 4.78519 22.2194 0 14.5 0ZM14.5 16C10.6402 16 7.50001 13.6074 7.50001 10.6667C7.50001 7.72594 10.6402 5.33337 14.5 5.33337C18.3597 5.33337 21.4999 7.72594 21.4999 10.6667C21.4999 13.6074 18.3597 16 14.5 16Z" fill="#F0EFEF"/>
</svg>
