<svg width="28" height="30" viewBox="0 0 28 30" fill="none" xmlns="http://www.w3.org/2000/svg">
<path d="M27.6476 25.7769L20.9244 18.3566C20.4423 17.8243 19.8397 17.6111 19.5787 17.8833C19.3167 18.1535 18.7137 17.9409 18.2316 17.4086L18.1355 17.302C21.1445 13.074 20.8525 7.02033 17.2391 3.15993C13.2953 -1.05331 6.90104 -1.05331 2.9578 3.15993C-0.985933 7.37318 -0.985933 14.2035 2.9578 18.4167C6.6328 22.3434 12.4331 22.6064 16.3988 19.215L16.441 19.262C16.9222 19.7944 17.1015 20.4448 16.8387 20.7155C16.5772 20.9863 16.7551 21.6372 17.2377 22.1686L23.9573 29.5918C24.4394 30.1227 25.2338 30.1385 25.7326 29.623L27.6185 27.6736C28.1154 27.1593 28.1288 26.3112 27.6476 25.7769ZM15.0199 16.0457C12.306 18.9455 7.88963 18.9455 5.17613 16.0467C2.46222 13.1473 2.46263 8.42863 5.17613 5.52978C7.88963 2.6304 12.306 2.63084 15.019 5.53022C17.7333 8.42916 17.7333 13.1469 15.0199 16.0457Z" fill="#F0EFEF"/>
</svg>
