<svg width="28" height="32" viewBox="0 0 28 32" fill="none" xmlns="http://www.w3.org/2000/svg">
<path d="M13.5578 15.4144C15.7417 15.4144 17.6327 14.6549 19.1778 13.1564C20.7229 11.6581 21.5062 9.82486 21.5062 7.70696C21.5062 5.58979 20.7229 3.75631 19.1776 2.25755C17.6322 0.759515 15.7414 0 13.5578 0C11.3737 0 9.48317 0.759515 7.93806 2.25779C6.39294 3.75607 5.60944 5.58955 5.60944 7.70696C5.60944 9.82486 6.39294 11.6583 7.93831 13.1566C9.48367 14.6547 11.3745 15.4144 13.5578 15.4144V15.4144Z" fill="#F0EFEF"/>
<path d="M27.4653 24.6063C27.4208 23.9827 27.3306 23.3026 27.198 22.5843C27.064 21.8607 26.8916 21.1766 26.6851 20.5514C26.4719 19.9051 26.1818 19.267 25.8233 18.6554C25.4512 18.0206 25.0141 17.4679 24.5237 17.0131C24.0108 16.5372 23.3829 16.1547 22.6568 15.8756C21.9332 15.598 21.1313 15.4574 20.2735 15.4574C19.9367 15.4574 19.6109 15.5915 18.9817 15.9887C18.5945 16.2335 18.1415 16.5167 17.636 16.83C17.2037 17.0971 16.6181 17.3473 15.8947 17.5739C15.189 17.7953 14.4725 17.9076 13.7653 17.9076C13.0581 17.9076 12.3418 17.7953 11.6353 17.5739C10.9127 17.3475 10.3271 17.0973 9.89532 16.8302C9.39455 16.5199 8.94136 16.2367 8.54835 15.9884C7.91993 15.5912 7.59389 15.4572 7.25702 15.4572C6.39899 15.4572 5.59735 15.598 4.87402 15.8759C4.14841 16.1544 3.52025 16.537 3.00689 17.0133C2.51669 17.4684 2.07937 18.0209 1.70776 18.6554C1.34949 19.267 1.05945 19.9049 0.845947 20.5516C0.639748 21.1769 0.467285 21.8607 0.333344 22.5843C0.200661 23.3016 0.110527 23.982 0.0659638 24.607C0.0221558 25.2193 0 25.8548 0 26.4966C0 28.167 0.5476 29.5193 1.62744 30.5166C2.69394 31.5007 4.10511 32 5.82117 32H21.7109C23.4269 32 24.8376 31.501 25.9044 30.5166C26.9845 29.52 27.5321 28.1675 27.5321 26.4964C27.5318 25.8516 27.5094 25.2156 27.4653 24.6063V24.6063Z" fill="#F0EFEF"/>
</svg>
